<svg version="1.2" xmlns="http://www.w3.org/2000/svg" viewBox="0 0 1024 663" width="1024" height="663">
	<title>logo-svg</title>
	<style>
		.s0 { fill: none;stroke: #000000;stroke-miterlimit:100 } 
		.s1 { fill: #000000 } 
	</style>
	<g id="Layer">
		<path id="Layer" class="s0" d="m0 331.5v331.5h512 512v-331.5-331.4l-512-0.1h-512zm524.8-215.4c2 1.8 2.2 2.7 1.6 7.2-0.4 2.9-1.2 6.8-1.8 8.7l-1.1 3.5-19.5 0.6c-10.7 0.4-22 1.1-25 1.7-40.8 7.8-77.6 25.9-104.9 51.7-11.3 10.7-30.1 33-30.1 35.8 0 2.9 11.1-2 65.5-28.8 50.4-24.9 69.6-34.2 85.9-41.6 7.1-3.2 16.9-8.3 21.7-11.4 4.8-3.1 11.2-6.4 14.2-7.4 10.1-3.5 12.6-5.6 12.7-10.4 0-3.6 2.6-4.6 9.3-3.5 13.5 2 18.4 2 28.2 0.3 18.7-3.4 41.1-0.7 61 7.2 29.2 11.6 51.6 27.7 72.1 51.6 22.1 25.8 36 52.6 40.8 78.2 2.2 12.3 2.5 117.7 0.3 125.5-5.9 20.8-16.8 35.9-35.7 49.3l-7.4 5.2-1.2 6.5c-2.6 13.8-6 20.4-20.5 40-14.4 19.3-22.1 27.4-39.4 41.4-22.6 18.4-44.9 28.8-78.3 36.6-18.6 4.3-28.3 5.3-46.7 4.8-12.1-0.4-17-1-20-2.3-8.5-3.6-8.5-3.6-22.7 1.7-18.7 6.9-25.4 8.2-41.3 7.5-14.4-0.6-18.9-1.7-39-9.7-16-6.3-27.5-11.8-36-17-20.2-12.3-58.6-41.3-72.7-54.8-13.8-13.2-22.9-31.3-25.6-50.7-1-6.9-2.6-79.1-2.5-113.5 0-26.1 12.3-54.8 29.9-69.6 12.8-10.8 14.9-13.1 16.8-18.6 3.1-8.6 12.2-26.9 17.4-34.6 15.3-23 47.4-51.4 73.1-64.6 25.3-12.9 43.3-19.6 63.5-23.7 20.2-4.1 24.7-4.6 41.2-4.8 12.9-0.1 14.2 0.1 16.2 2zm245.1 58.9c2.1 1 5 3.3 6.5 5 3.1 3.7 5.9 12.8 5.1 16.3-1.8 7-13 14.7-21.4 14.7-12.3 0-22.5-12.1-19.3-22.9 1.4-4.6 7.1-11.3 11.4-13.4 4.6-2.3 13-2.2 17.7 0.3z"/>
		<path id="Layer" class="s1" d="m577.1 145.6c-16.4 3-28.3 7.8-70.6 28.4-19.2 9.4-31.9 15.6-88.7 43.4-14.2 6.9-26 12.6-26.3 12.6-1.4 0-49.9 24.2-55.9 27.9-3.8 2.4-11.4 7.7-16.8 11.8-16 12.1-26.3 28-29.5 45.6-2.1 11.4-1.1 130.6 1.1 138 3.9 13 25.7 35.7 53.6 55.9 45.2 32.6 83.3 49.5 106.4 47.2 16.7-1.6 43.3-12.8 64.7-27.2 25.7-17.3 53-35 59.9-38.8 4.1-2.2 11.1-6.1 15.5-8.6 9.6-5.4 37.4-19 46.8-22.9 3.7-1.6 8-3.7 9.5-4.7 1.5-1.1 8.5-4.7 15.7-8.1 21.3-10.2 31.3-16.3 47.6-29.4 12.9-10.2 20-19.7 24.4-32.2 2-5.6 2-12.8 0.6-87.5-0.8-40.4-0.8-40.5-3.5-49-7.1-22.1-26.6-50.3-46.8-68-21.2-18.5-47.4-32.1-67.4-35-9.6-1.3-31.4-1.1-40.3 0.6zm46.9 19.1c16.9 4.7 34.1 14.5 48.9 27.7 23.6 21 39.4 45.6 44.7 69.3 6 27-10 57.4-40.2 76.1-9.9 6.1-34.2 18.5-50.7 25.7-45.5 19.9-64.3 29.7-89.2 46.2-53.9 35.8-74.2 45.2-95.5 44-13.8-0.7-30.8-5.4-43.9-12-31.6-16.1-53.5-31.7-69.9-50-14.4-16-21.2-30.6-23.3-49.6-2-18.4 1-30.6 11-44 13.1-17.5 23.3-23.8 84.6-52.4 17.1-8 46.5-22.1 65.5-31.5 40.5-19.9 84.9-41 93.8-44.6 20.8-8.3 45.5-10.2 64.2-4.9zm94.7 187.7l-0.5 29.4-3 4.4c-7.3 10.6-28 26.4-49.2 37.5-27.6 14.5-70.7 35-71.5 34.1-0.2-0.2-0.5-14.1-0.7-30.9l-0.4-30.6 9.6-4.4c5.2-2.4 17.9-8.4 28.3-13.4 10.3-4.9 18.8-9 18.9-9 0 0 0.4 10.6 0.7 23.6l0.6 23.7 5.3-2c2.8-1.1 5.6-2.8 6.2-3.8 1.1-2.1 1.8-40.6 0.8-43.5-0.6-1.7 1-3.1 11.9-9.8 6.9-4.3 12.6-7.7 12.7-7.5 0.1 0.2-0.1 6.6-0.5 14.3-1 19.9-0.3 21.5 6.4 15 6.6-6.4 7.2-8.3 7.2-24.2v-14.1l6.1-6.4c3.3-3.4 6.9-7.5 7.8-9.1 1-1.5 2.3-2.7 2.8-2.7 0.6 0 0.8 10.8 0.5 29.4zm-402.5 48.1c9.1 13.1 27.6 29 48.4 41.6 22.8 13.8 35.4 19.3 66.9 29.2l4 1.2 0.3 31.9c0.1 17.6-0.1 32.3-0.5 32.7-0.9 0.8-21.5-7.1-30.3-11.5-33.9-17.3-72.8-44.8-87.5-61.8-8.1-9.3-8.5-10.8-9.5-35.6-0.5-11.9-0.9-25.8-1-30.7v-9l2.5 3c1.4 1.6 4.4 5.7 6.7 9zm257.8 24.7c-0.1 18.7-0.6 22.8-4.6 31.4-1.4 3.1-2.8 7.2-3.1 9.1-0.4 2.1-2.1 5.1-4.5 7.6-2.1 2.3-4.7 5.6-5.8 7.4-1 1.8-3.4 4-5.2 4.9-1.8 0.9-14.5 8.9-28.3 17.8-27.2 17.5-44.2 26.7-57.6 31.4l-8.7 3.1-0.7-16.2c-0.4-8.9-0.5-23.7-0.3-33l0.3-16.7 5-1.9c2.8-1 7.5-2.6 10.5-3.6 13.9-4.4 37.4-17.9 76.2-43.9 3.1-2.1 6.1-3.5 6.6-3.2 0.5 0.3 1.2 1.8 1.5 3.3 0.7 3.1 6 5.9 11.2 5.9 2.8-0.1 3-0.4 3.7-5.1 0.5-2.8 0.6-6.5 0.3-8.2-0.6-3.3 0.8-7.3 2.5-7.3 0.6 0 1 6.8 1 17.2z"/>
		<path id="Layer" class="s1" d="m581.4 180c-16.8 4.6-30.9 10.8-35.7 15.5-4.3 4.3-4.9 8.9-5.1 37l-0.2 26-3.2 8.3c-2.7 7.1-3.9 12-2.9 12.3 0.1 0 13.3 0.4 29.2 0.8 29 0.8 29 0.8 35 3.6 3.2 1.6 8.6 3.8 11.9 5 8.5 2.9 10.4 4.1 12.1 7.5 3.4 6.6 0.1 14.4-7.1 16.9-3.9 1.4-4.3 1.3-7.3-0.8-5.7-4.1-7.8-11.6-4.6-17.1 0.8-1.4 1.4-2.7 1.5-3 0-1-35.7-1-43.5 0-22.7 3-58.4 17.4-81.3 32.8-29.7 19.9-55.8 54-66 86.2-1.7 5.2-3.3 11.1-3.7 13.1l-0.7 3.6 7.4 3.1c10.1 4.2 14.7 5.1 25.4 5.2 9.5 0 20.1-2.5 23.6-5.7 0.9-0.8 2.9-5.2 4.4-9.7 6.2-18.8 20.5-42 33.2-53.7 6.7-6.2 27.1-18.6 41.8-25.4 15.9-7.4 30.1-12.8 31.9-12.1 4.7 1.8-9 12.9-42.3 34.4-13.9 9-26.6 20.6-33.2 30.5-3.7 5.5-11 22.3-11 25.4 0 1.5 0.2 1.5 1.8 0.1 0.9-0.9 4.1-2.8 7-4.2 7.1-3.6 15.1-8.8 24.2-15.6 4.1-3.1 11.5-8 16.3-10.8 4.8-2.9 11.7-7.4 15.2-10.1 11.8-9.1 36.3-21.6 62.9-32.2 12.7-5.1 39.4-18.1 46.6-22.7 14.6-9.3 26.9-23.9 31.1-37 5.7-17.6 0.1-41.1-14.3-60.7-6.2-8.4-20.4-22.5-29.6-29.4-9.2-6.9-16-10.4-28.8-14.7-9.7-3.3-12.2-3.8-22.9-4.1-9.6-0.2-13.4 0.1-19.1 1.7zm39.2 29.8c4.4 2.3 9.4 7.4 12 12.4 2.5 4.8 2.9 13.7 1 19.5-3.1 9.5-14.5 17.8-26 19-17 1.8-32.4-13.3-30-29.4 2.2-15.6 14.2-24.7 31.4-24 5.2 0.3 8.8 1 11.6 2.5z"/>
		<path id="Layer" class="s1" d="m600.5 226.6c-6.6 3.5-7.6 9.5-2.3 13.9 2.8 2.4 3.9 2.7 8.3 2.3 8.9-0.7 14.3-6.5 11.6-12.4-2.2-4.8-11.7-6.8-17.6-3.8z"/>
		<path id="Layer" class="s1" d="m512 209.6c-3.6 1.8-9.9 4.8-14 6.5-4.1 1.7-14 6.4-22 10.4-16 8.1-20.3 11.7-26 22-1.9 3.3-4.3 7.3-5.5 9-10.5 14.6-19 25.4-31 39.5-7.8 9.1-17.9 21.2-22.5 27-4.6 5.8-11.9 14.5-16 19.5-13.6 16-27 35.8-27 39.8 0 3.9 37.2 34.7 41.9 34.7 1.3 0 3.9-5 8.6-17 6.1-15.7 10.9-24.8 20.4-39.1 16.4-24.9 41.4-47.8 66.6-61.4 8.8-4.8 17.4-11.3 21.2-16.2 5.3-6.8 11.5-18.2 14.4-26.6 2.6-7.4 2.9-9.5 2.9-21.5 0-13.4-1.8-25.3-4.3-28.5-1.1-1.3-2-1.1-7.7 1.9z"/>
		<path id="Layer" class="s1" d="m415.5 256.1c-3.8 2.2-11.9 6-18 8.5-15.1 6.4-39.7 18.8-47 23.7-8.2 5.5-19.6 17.2-22.3 22.9-1.2 2.6-2.6 6.6-3.2 9-1.5 6.6-1.2 23.6 0.5 30.3 1.7 6.8 6.4 16.6 8.2 17.2 0.6 0.2 4.9-4.9 9.6-11.4 4.7-6.5 10.9-14.5 13.9-17.8 3-3.3 11.6-13.7 19.1-23 7.6-9.4 18.9-23.3 25.3-31 6.3-7.7 12.5-15.4 13.9-17 2.8-3.6 7.8-13.3 7.3-14.4-0.2-0.4-3.4 0.9-7.3 3z"/>
		<path id="Layer" class="s1" d="m669.5 465.4c-33.8 14.6-82.8 41.6-116.7 64-9.2 6.1-18 11.9-19.7 12.8-1.7 0.9-3.1 2.5-3.1 3.4 0 1.5 1.2 1.6 12.3 1.1 26.6-1.3 63.8-13.8 86-28.8 18.4-12.5 39.3-32.7 51.6-49.8 6-8.4 4-9-10.4-2.7z"/>
	</g>
</svg>